<svg width="243" height="38" viewBox="0 0 243 38" fill="none" xmlns="http://www.w3.org/2000/svg">
<path d="M64.4678 3.83281L69.0326 1.62061V25.1201C69.0326 27.5514 69.75 28.981 71.185 29.4506C70.4883 30.7967 69.2717 31.4645 67.5768 31.4645C65.4972 31.4645 64.4678 30.0141 64.4678 27.134V3.83281Z" fill="#E4271A"/>
<path d="M90.8898 22.8829H76.9251C77.0083 24.4481 77.5386 25.6586 78.5264 26.5351C79.5142 27.4012 80.8348 27.8395 82.5089 27.8395C83.1328 27.8395 83.2887 27.9125 84.2766 27.683C85.0668 27.5056 86.0235 27.0256 87.0945 27.4325C87.656 27.6203 88.0615 28.1838 88.3942 28.6743C88.7478 29.1543 89.0181 29.6969 89.0181 29.6969C87.4064 31.0117 85.0044 31.6587 81.8226 31.6587C78.8383 31.6587 76.478 30.7821 74.7519 29.0395C73.005 27.2864 72.1523 24.8342 72.1523 21.6933C72.1523 18.5524 73.0986 16.1106 75.0118 14.1802C76.9147 12.2601 79.1919 11.3105 81.8746 11.3105C84.7133 11.3105 86.9801 12.1662 88.6958 13.8671C90.4115 15.568 91.2745 17.728 91.2745 20.3472C91.2745 20.9107 91.1497 21.7663 90.9002 22.8933L90.8898 22.8829ZM77.0811 19.4394H86.6889C86.3666 16.5698 84.7757 15.1297 81.937 15.1297C79.3375 15.1297 77.7153 16.5698 77.0811 19.4394Z" fill="#E4271A"/>
<path d="M60.9204 22.8829H46.9453C47.0285 24.4481 47.5588 25.6586 48.557 26.5351C49.5448 27.4012 50.8654 27.8395 52.5395 27.8395C53.1738 27.8395 53.3298 27.9125 54.2968 27.683C55.087 27.5056 56.0437 27.0256 57.1251 27.4325C57.697 27.6203 58.1025 28.1838 58.4352 28.6743C58.7888 29.1543 59.0487 29.6969 59.0487 29.6969C57.4474 31.0117 55.0559 31.6587 51.8636 31.6587C48.8794 31.6587 46.519 30.7821 44.7929 29.0395C43.0564 27.2864 42.1934 24.8342 42.1934 21.6933C42.1934 18.5524 43.1396 16.1106 45.0528 14.1802C46.9557 12.2601 49.2433 11.3105 51.9052 11.3105C54.7439 11.3105 57.0211 12.1662 58.7368 13.8671C60.4525 15.568 61.3155 17.728 61.3155 20.3472C61.3155 20.9107 61.1908 21.7663 60.9308 22.8933L60.9204 22.8829ZM47.1117 19.4394H56.7092C56.3972 16.5698 54.8167 15.1297 51.9676 15.1297C49.3681 15.1297 47.746 16.5698 47.1117 19.4394Z" fill="#E4271A"/>
<path d="M107.818 31.3344C107.818 31.3344 106.799 31.3657 106.248 30.5101C106.05 30.2075 101.028 22.4439 101.028 22.4439L98.8441 24.7709V31.3344H94.2793V3.90101L98.8441 1.78271V19.2508L105.364 11.7168H110.864L104.251 19.1569L112.216 31.3449H107.818V31.3344Z" fill="#E4271A"/>
<path d="M117.042 15.3582H111.51L114.775 11.6746H117.042V7.67807L121.606 5.99805V11.6746H126.972V15.3582H121.606V23.9566C121.606 25.3653 121.825 26.3566 122.272 26.9305C122.709 27.5149 123.478 27.8071 124.57 27.8071C125.662 27.8071 126.691 27.5044 127.637 26.9096V31.1254C126.577 31.4906 125.069 31.6784 123.114 31.6784C121.159 31.6784 119.672 31.1254 118.622 30.0193C117.572 28.9132 117.052 27.3375 117.052 25.3027V15.3582H117.042Z" fill="#E4271A"/>
<path d="M143.16 12.9761C142.443 14.2283 142.921 16.1692 142.921 16.1692C142.401 15.7935 141.133 15.1048 139.708 15.1466C138.647 15.1883 137.379 15.6788 136.568 16.6492C135.746 17.6196 135.33 18.7884 135.33 20.1866V31.3729H130.766V11.7343H135.33V13.5292C136.609 12.0891 138.19 11.2961 140.322 11.2856C141.538 11.2856 142.62 11.4317 143.961 11.9848C143.961 11.9848 143.628 12.1935 143.171 12.9761H143.16Z" fill="#E4271A"/>
<path d="M159.352 25.2789V21.084C159.352 17.2857 158.665 14.7083 157.272 13.3413C155.879 11.9848 154.454 11.2856 151.459 11.2856C149.307 11.2856 148.038 11.6613 148.038 11.6613C144.732 12.6213 146.083 15.9918 146.083 15.9918H146.094C146.125 15.9709 146.167 15.9605 146.198 15.9292L146.822 15.6683C147.83 15.3135 149.026 15.1153 150.388 15.1153C153.3 15.1153 154.745 16.2735 154.745 18.5797C154.017 18.4023 153.373 18.3084 152.853 18.3084C149.723 18.3084 147.31 18.9553 145.605 20.2284C143.91 21.5119 143.058 23.2962 143.058 25.5711C143.058 27.512 143.671 29.0042 144.867 30.0685C146.073 31.1329 147.726 31.6546 149.837 31.6546C150.95 31.6546 152.031 31.4355 153.061 30.9972C154.09 30.5694 154.808 30.0059 155.223 29.3172C155.411 29.8911 155.764 30.4233 156.284 30.9137C156.804 31.3938 157.386 31.6233 158.062 31.6442C158.686 31.6651 159.123 31.6129 159.643 31.4042C160.111 31.2268 160.527 30.8511 160.901 30.1937C159.851 29.5259 159.32 27.8876 159.32 25.2685L159.352 25.2789ZM154.808 23.8806C154.808 26.6354 153.435 28.0024 150.7 28.0024C148.673 28.0024 147.643 27.1363 147.643 25.3624C147.643 22.9936 149.463 21.8041 153.05 21.8041C153.445 21.8041 154.028 21.8875 154.808 22.0545V23.8806Z" fill="#E4271A"/>
<path d="M18.8828 16.4629C18.8828 16.4629 19.8498 19.4786 21.9606 20.5743C23.7803 21.5239 26.1199 21.7013 28.2931 19.3325C30.2376 17.2142 29.6449 14.8664 29.6449 14.8664L34.8543 13.8438C34.8543 13.8438 35.603 17.6316 34.6568 21.1482C34.6568 21.1482 32.0052 24.5291 27.6172 24.5291C23.2292 24.5291 19.2363 22.7447 18.1445 16.7134L18.8932 16.4629H18.8828Z" fill="#E4271A"/>
<path d="M17.6559 16.9908C17.6559 16.9908 19.7771 14.643 19.6627 12.2638C19.5691 10.1977 18.5605 8.08982 15.4203 7.38025C12.6128 6.75415 10.8867 8.43418 10.8867 8.43418L7.40332 4.41673C7.40332 4.41673 10.3148 1.8706 13.819 0.941895C13.819 0.941895 18.0718 1.55756 20.2554 5.36631C22.5118 9.2794 22.9069 13.5473 18.2486 17.5126L17.6559 16.9908Z" fill="#E4271A"/>
<path d="M18.7052 17.7514C18.7052 17.7514 15.617 17.094 13.6206 18.3671C11.8841 19.4732 10.5739 21.4141 11.5305 24.4924C12.3936 27.2367 14.702 27.9046 14.702 27.9046L12.9863 32.9342C12.9863 32.9342 9.34692 31.6925 6.78898 29.115C6.78898 29.115 5.19807 25.1185 7.38167 21.3097C9.63807 17.3966 13.111 14.9131 18.8716 16.9792L18.7156 17.7514H18.7052Z" fill="#E4271A"/>
<path d="M30.7374 6.80281C31.3196 7.94022 32.2555 10.3089 29.8223 13.4186C28.169 15.5473 25.6111 15.6516 25.6111 15.6516C25.6111 15.6516 31.3508 9.88112 25.1016 6.13498L28.325 4.43408C28.325 4.43408 30.0615 5.49845 30.727 6.80281H30.7374Z" fill="#E4271A"/>
<path d="M25.1023 6.13442L28.3257 4.43353L27.9513 3.29612L27.1195 0.75L24.0312 2.56568L25.1023 6.12399V6.13442Z" fill="#E4271A"/>
<path d="M3.41061 11.5299C4.09689 10.4551 5.6774 8.46199 9.5767 9.01504C12.2386 9.3907 13.6008 11.5612 13.6008 11.5612C13.6008 11.5612 5.75019 9.46374 5.64621 16.7578L2.56836 14.8064C2.56836 14.8064 2.62035 12.7612 3.41061 11.5299Z" fill="#E4271A"/>
<path d="M5.64619 16.7785L2.56834 14.8271L1.77808 15.7141L0 17.7072L3.11944 19.4811L5.65659 16.7785H5.64619Z" fill="#E4271A"/>
<path d="M21.1196 32.8257C19.8406 32.7631 17.3451 32.3979 15.8685 28.7248C14.8599 26.2204 16.0453 23.9561 16.0453 23.9561C16.0453 23.9561 18.1561 31.824 24.5094 28.2761L24.3638 31.9283C24.3638 31.9283 22.5649 32.8988 21.1092 32.8257H21.1196Z" fill="#E4271A"/>
<path d="M24.5294 28.2798L24.3838 31.932L25.5484 32.172L28.1583 32.7251L28.1375 29.1354L24.5294 28.2798Z" fill="#E4271A"/>
<ellipse cx="185.28" cy="20.0829" rx="17.1127" ry="17.1127" fill="#E4271A"/>
<path d="M191.871 24.9729C188.417 24.9729 185.607 22.4452 185.607 19.3317C185.607 16.2181 188.417 13.6904 191.871 13.6904C195.326 13.6904 198.135 16.2181 198.135 19.3317C198.135 22.4452 195.326 24.9729 191.871 24.9729ZM191.871 15.6692C189.768 15.6692 188.052 17.3113 188.052 19.3363C188.052 21.3612 189.763 23.0033 191.871 23.0033C193.979 23.0033 195.691 21.3612 195.691 19.3363C195.691 17.3113 193.979 15.6692 191.871 15.6692Z" fill="white"/>
<path d="M182.186 29.1172V28.6191C182.186 27.9133 181.978 27.4152 181.559 27.1246C181.139 26.834 180.558 26.691 179.806 26.691H176.886C176.31 26.691 175.816 26.6449 175.405 26.5526C174.995 26.4603 174.667 26.322 174.423 26.1421C174.178 25.9622 173.999 25.7546 173.883 25.5148C173.768 25.2749 173.708 25.012 173.708 24.726C173.708 24.1494 173.883 23.7158 174.238 23.4299C174.594 23.1393 175.06 22.9548 175.645 22.8671C176.231 22.7795 176.845 22.7656 177.495 22.8256L178.727 23.0655C177.878 23.0931 177.232 23.1716 176.789 23.2915C176.351 23.416 176.13 23.6559 176.13 24.0157C176.13 24.2325 176.217 24.4031 176.388 24.5369C176.563 24.666 176.808 24.7306 177.126 24.7306H180.198C181.079 24.7306 181.849 24.8367 182.513 25.0443C183.178 25.2518 183.694 25.607 184.059 26.1052C184.428 26.6033 184.612 27.286 184.612 28.1486V29.1218H182.191L182.186 29.1172Z" fill="white"/>
<path d="M178.713 23.0725C175.752 23.0725 173.344 20.9691 173.344 18.3815C173.344 15.7938 175.752 13.6904 178.713 13.6904C181.674 13.6904 184.082 15.7938 184.082 18.3815C184.082 20.9691 181.674 23.0725 178.713 23.0725ZM178.713 15.6646C177.029 15.6646 175.659 16.8824 175.659 18.3815C175.659 19.8806 177.029 21.0983 178.713 21.0983C180.396 21.0983 181.762 19.8806 181.762 18.3815C181.762 16.8824 180.392 15.6646 178.713 15.6646Z" fill="white"/>
<path d="M183.695 16.0083H180.337V13.9419H186.015C186.015 15.0812 184.977 16.0083 183.695 16.0083Z" fill="white"/>
<path d="M194.068 29.1511H184.415L185.469 26.2686H197.675C197.036 28.0234 195.625 29.1511 194.068 29.1511Z" fill="url(#paint0_linear_49124_10014)"/>
<path d="M229.996 18.6137H226.789L225.615 23.7773C225.521 24.1904 225.474 24.5346 225.474 24.81C225.474 25.6072 225.923 26.0058 226.822 26.0058C227.22 26.0058 227.873 25.8174 228.779 25.4405V27.8864C227.996 28.1546 226.931 28.2886 225.583 28.2886C224.698 28.2886 223.988 28.0132 223.452 27.4625C222.916 26.9117 222.647 26.1942 222.647 25.3101C222.647 25.0202 222.68 24.7339 222.745 24.4513L224.061 18.6137H222.713L223.18 16.4287H224.528L224.985 14.048L228.094 12.9175L227.278 16.4287H230.463L229.996 18.6137Z" fill="#4D6585"/>
<path d="M218.096 12.6924C218.096 12.2069 218.267 11.8046 218.607 11.4858C218.955 11.1596 219.375 10.9966 219.868 10.9966C220.354 10.9966 220.771 11.1596 221.118 11.4858C221.466 11.8046 221.64 12.2069 221.64 12.6924C221.64 13.1707 221.466 13.5729 221.118 13.8991C220.771 14.2252 220.354 14.3882 219.868 14.3882C219.383 14.3882 218.966 14.2288 218.618 13.9099C218.27 13.5838 218.096 13.178 218.096 12.6924ZM218.901 28.0744H216.14L217.901 18.6169H216.411L216.868 16.4319H221.075L218.901 28.0744Z" fill="#4D6585"/>
<path d="M213.697 27.0096C213.252 27.7188 212.577 28.0735 211.671 28.0735C210.992 28.0735 210.456 27.8509 210.064 27.4057C209.672 26.9605 209.476 26.3833 209.476 25.6741C209.476 24.7535 209.657 23.4293 210.019 21.7014L212.152 11.5471L215.101 10.8701L212.769 22.1542C212.437 23.7613 212.271 24.9082 212.271 25.5948C212.271 26.0325 212.407 26.3796 212.679 26.6361C212.95 26.8851 213.29 27.0096 213.697 27.0096Z" fill="#4D6585"/>
<path d="M241.346 22.7687H233.21C233.129 23.6938 233.337 24.4091 233.845 24.9271C234.348 25.439 235.081 25.698 236.055 25.698C236.424 25.698 236.509 25.7412 237.091 25.6055C237.566 25.5006 238.163 25.217 238.758 25.4575C239.076 25.5685 239.265 25.9015 239.418 26.1913C239.584 26.475 239.69 26.7957 239.69 26.7957C238.649 27.5727 237.203 27.9551 235.345 27.9551C233.607 27.9551 232.306 27.437 231.446 26.4072C230.581 25.3711 230.282 23.9219 230.543 22.0657C230.804 20.2095 231.557 18.7664 232.832 17.6256C234.099 16.4909 235.509 15.9297 237.059 15.9297C238.711 15.9297 239.966 16.4354 240.823 17.4406C241.681 18.4458 242.004 19.7223 241.786 21.2702C241.739 21.6032 241.596 22.1089 241.351 22.7749L241.346 22.7687ZM233.593 20.7337H239.18C239.237 19.0378 238.436 18.1868 236.778 18.1868C235.265 18.1868 234.201 19.0378 233.593 20.7337Z" fill="#4D6585"/>
<defs>
<linearGradient id="paint0_linear_49124_10014" x1="185.545" y1="27.0782" x2="194.547" y2="28.6751" gradientUnits="userSpaceOnUse">
<stop stop-color="#EEC006" stop-opacity="0"/>
<stop offset="1" stop-color="#EEC006"/>
</linearGradient>
</defs>
</svg>
